<svg id="Calque_1" data-name="Calque 1" xmlns="http://www.w3.org/2000/svg" viewBox="0 0 454.01 84.87"><path d="M0 0h60.1v16.64H21.16v19.09h30.18v12.9H21.16v19.6h40.1v16.64H0V0ZM70.08 0h21.16v68.23h38.69v16.64H70.08V0ZM196 67.59h-33.92l-5.8 17.28h-21.67L167.36 0h26.31l32.76 84.87H201.8l-5.81-17.28Zm-4.38-13.16-12.51-37.15h-.26l-12.38 37.15h25.15ZM234.48 0h34.18c27.09 0 43.86 14.45 43.86 42.3s-15.87 42.57-41.15 42.57h-36.89V0Zm36.63 68.23c11.74 0 20.38-7.99 20.38-25.92s-9.16-25.67-21.67-25.67h-14.18v51.59h15.48Z"/><g id="Calque_2" data-name="Calque 2"><g id="logo-H-fd_6" data-name="logo-H-fd 6"><path d="M344.71 49.65h29.59V36.5h-29.59V16.23h43.43V.15h-65.45v84.72h56.61l8.62-16-43.21-.08V49.65zM435.22.15l-47.08 84.72h18.79L454.01.15h-18.79z"/></g></g></svg>