<?xml version="1.0" encoding="UTF-8"?>
<svg id="Calque_1" data-name="Calque 1" xmlns="http://www.w3.org/2000/svg" viewBox="0 0 454.01 84.87">
  <path d="M0,0H60.1V16.64H21.16v19.09h30.18v12.9H21.16v19.6H61.26v16.64H0V0Z"/>
  <path d="M70.08,0h21.16V68.23h38.69v16.64h-59.85V0Z"/>
  <path d="M196,67.59h-33.92l-5.8,17.28h-21.67L167.36,0h26.31l32.76,84.87h-24.63l-5.81-17.28Zm-4.38-13.16l-12.51-37.15h-.26l-12.38,37.15h25.15Z"/>
  <path d="M234.48,0h34.18c27.09,0,43.86,14.45,43.86,42.3s-15.87,42.57-41.15,42.57h-36.89V0Zm36.63,68.23c11.74,0,20.38-7.99,20.38-25.92s-9.16-25.67-21.67-25.67h-14.18v51.59h15.48Z"/>
  <g id="Calque_2" data-name="Calque 2">
    <g id="logo-H-fd_6" data-name="logo-H-fd 6">
      <polygon points="344.71 49.65 374.3 49.65 374.3 36.5 344.71 36.5 344.71 16.23 388.14 16.23 388.14 .15 322.69 .15 322.69 84.87 379.3 84.87 387.92 68.87 344.71 68.79 344.71 49.65"/>
      <polygon points="435.22 .15 388.14 84.87 406.93 84.87 454.01 .15 435.22 .15"/>
    </g>
  </g>
</svg>