<svg width="345" height="158" xmlns="http://www.w3.org/2000/svg" xmlns:xlink="http://www.w3.org/1999/xlink"><defs><path id="path-1" d="M0 154h345V0H0z"/></defs><g id="Page-1" stroke="none" stroke-width="1" fill="none" fill-rule="evenodd"><g id="Extra-Small-Devices:-Phones---2-Col-Copy" transform="translate(-15 -113)"><g id="Group-24" transform="translate(15 114)"><path d="M26.158 96.172c2.105-6.625 4.002-13.366 7.315-19.435C37.031 70.22 44.12 63.21 52.166 64.19c8.946 1.09 11.76 13.726 14.422 20.726l4.392 11.552c-14.941.048-29.882-.06-44.822-.296Zm63.92.417a1157.254 1157.254 0 0 0-2.476-74.734c-.231-3.52-2.55-5.654-5.93-6.023l-65.823-7.18c-3.832-.418-8.3-1.645-11.646.988C.77 12.343.997 16.686 1.006 20.657l.08 33.975c.018 7.75 11.88 7.764 11.861 0L12.9 34.715l-.022-9.372c-.002-1.17-.178-3.417-.209-5.247 1.557.21 3.179.603 4.334.729l9.239 1.007 18.477 2.016 31.35 3.42a1157.372 1157.372 0 0 1 2.042 54.38 618.772 618.772 0 0 0-3.912-9.894c-4.02-9.892-10.608-19.013-22.033-19.61-26.6-1.393-32.57 29.177-40.038 48.32-1.47 3.77 2.226 7.558 5.719 7.625 19.232.371 38.466.494 57.702.394l2.779 7.31c2.31 6.077 11.546 5.593 11.649-1.6.029-2.022.038-4.043.055-6.062 5.27-1.595 5.296-10.023.046-11.542Z" id="Stroke-1" stroke="red" stroke-width="1.473"/><path d="M176.535 133.392c-2.013-4.913-3.981-9.846-6.04-14.74-1.542-3.667-3.145-6.717-6.94-8.363-6.886-2.988-17.394.124-24.3 1.937-9.851 2.586-19.184 6.7-27.754 12.069 11.014-34.3 15.193-70.635 12.15-106.615-.638-7.54-12.459-7.608-11.816 0 3.523 41.654-2.781 83.307-18.423 122.057-2.351 5.824 5.952 9.475 9.875 5.763 9.385-8.884 20.505-15.798 32.758-19.95 5.72-1.937 11.653-3.383 17.649-4.116 4.524-.554 4.978-.636 6.702 3.526 1.596 3.854 3.164 7.72 4.745 11.58 2.85 6.955 14.286 3.91 11.394-3.148Z" id="Stroke-3" stroke="red" stroke-width="1.473"/><path d="M221.2 45.115c-.029.031-.057.057-.085.089-7.298 8.45-19.064 5.643-26.553-1.045-9.028-8.06-13.529-19.872-19.09-30.296-2.337-4.382-9.972-3.6-10.997 1.427a707.49 707.49 0 0 1-13.302 54.119c-2.829-15.624-4.73-31.355-3.962-47.346.37-7.683-11.665-7.665-12.034 0-1.193 24.83 3.841 49.251 9.01 73.41 1.298 6.07 9.892 5.274 11.604 0a707.486 707.486 0 0 0 16.842-61.134c5.096 9.282 11.057 18.003 20.498 23.536 8.412 4.929 19.115 6.012 27.835 2.148v90.209c0 7.684 12.034 7.697 12.034 0V46.837c0-7.06-10.147-7.639-11.8-1.722Z" id="Stroke-5" stroke="red" stroke-width="1.473"/><path d="M227 13c-7.994 0-8.006 12 0 12 7.994 0 8.006-12 0-12Z" id="Stroke-7" stroke="red" stroke-width="1.473"/><path d="M309.554 11.858c-.457-6.693-9.435-8.216-11.52-1.595-3.18 10.096-13.796 15.492-21.473 21.629-5.713 4.567-10.124 9.868-13.47 15.944l-.014-22.12c-.005-7.722-11.735-7.735-11.73 0l.052 77.638c-.726 14.991-.303 30.101.03 44.851.173 7.708 11.734 7.745 11.729 0l-.03-46.435c.752-13.577 2.58-27.012 6.617-39.824 3.791-12.037 11.339-18.726 20.964-25.921 2.88-2.154 5.662-4.359 8.198-6.753a1482.69 1482.69 0 0 1 1.973 117.647c-.178 7.726 11.552 7.723 11.73 0 1.034-45.047.014-90.11-3.056-135.06Z" id="Stroke-9" stroke="red" stroke-width="1.473"/><path d="M332 5.894v35.212c0 7.852 12 7.865 12 0V5.894c0-7.852-12-7.865-12 0Z" id="Stroke-11" stroke="red" stroke-width="1.473"/><path d="M338 65c-7.994 0-8.006 12 0 12 7.994 0 8.006-12 0-12Z" id="Stroke-13" stroke="red" stroke-width="1.473"/><path d="m104.846 76.765-5.287-15.412h-.118L93.98 76.765h10.867ZM104.316 51 120 93h-9.574l-3.172-9.353H91.57L88.28 93H79l15.86-42h9.457Z" id="Fill-15" fill="#000"/><path id="Fill-17" fill="#000" d="M133.015 51v34.236H153V93h-29V51z"/><path id="Fill-19" fill="#000" d="M161.968 93 148 51h9.735l9.614 29.53h.12L177.205 51H187l-14.33 42z"/><mask id="mask-2" fill="#fff"><use xlink:href="#path-1"/></mask><path id="Fill-21" fill="#000" mask="url('#mask-2')" d="M191 93h9V51h-9z"/><path id="Fill-23" fill="#000" mask="url('#mask-2')" d="m216.572 51 18.285 28.177h.122V51H244v42h-9.634l-18.224-28.118h-.122V93H207V51z"/></g></g></g></svg>