<svg width="34" height="31" xmlns="http://www.w3.org/2000/svg"><g id="Page-1" stroke="none" stroke-width="1" fill="none" fill-rule="evenodd"><g id="Extra-Small-Devices:-Phones---2-Col-Copy" transform="translate(-15 -20)"><g id="Group-5" transform="translate(15 20)"><path d="M24.574 24.49c-1.78 0-3.56-.008-5.338-.023a834.502 834.502 0 0 1-5.504-.062c.086-.25.171-.498.254-.748l1.823-4.441a8.37 8.37 0 0 1 1.052-1.487c1.061-1.204 2.545-2.202 4.19-2.202.148 0 .299.008.45.025.169.02.33.05.484.094 2.294.642 3.08 3.83 3.824 5.643.44 1.066.877 2.132 1.314 3.197-.596.003-1.189.003-1.785.003h-.764M4.574 0c-.578 0-1.136.103-1.618.454-1.025.748-.957 1.951-.954 3.05.007 3.135.014 6.27.024 9.404.003 1.072.89 1.61 1.776 1.61.885 0 1.768-.536 1.766-1.61l-.015-5.514c0-.863-.002-1.73-.005-2.593-.002-.325-.053-.945-.063-1.453.466.058.95.166 1.296.202.473.048 2.072.096 3.632.145l1.415.146 4.687.282 1.135.1 1.628.164 9.365.946c.33 5.013.535 10.031.61 15.052-.383-.917-.77-1.828-1.169-2.738-1.2-2.737-3.168-5.263-6.582-5.43a9.648 9.648 0 0 0-.82-.006c-2.11.062-3.752.789-5.075 1.917-1.53 1.299-2.631 3.132-3.527 5.088l-1.777 4.44a53.504 53.504 0 0 1-.762 1.937c-.439 1.044.664 2.093 1.709 2.11a797.351 797.351 0 0 0 17.237.11c.278.674.554 1.348.83 2.024.318.774 1.075 1.163 1.802 1.163.852 0 1.663-.534 1.679-1.608.01-.559.012-1.12.017-1.677 1.574-.44 1.581-2.774.014-3.195-.01-6.9-.251-13.799-.742-20.683-.068-.975-.761-1.567-1.77-1.668C23.763 1.505 12.99.844 6.435.18 5.841.12 5.196 0 4.574 0m20 24.97h.764c.597 0 1.19 0 1.787-.002l.72-.004-.27-.658c-.437-1.066-.874-2.132-1.313-3.197-.116-.282-.234-.603-.36-.943-.682-1.847-1.616-4.376-3.783-4.983a3.576 3.576 0 0 0-.562-.11 4.57 4.57 0 0 0-.507-.027c-2.15 0-3.778 1.483-4.556 2.366a8.817 8.817 0 0 0-1.118 1.582l-.01.02-.009.021-1.823 4.44-.006.016-.006.016c-.066.2-.133.397-.202.595l-.05.15-.214.624.67.01c1.98.028 3.781.049 5.506.062 1.771.015 3.568.022 5.342.022M4.574.481c.395 0 .817.055 1.225.107.193.025.392.051.585.07 3.285.333 7.692.67 11.954.996 4.257.326 8.658.663 11.93.994.469.047 1.266.268 1.332 1.222.482 6.76.731 13.708.741 20.65v.368l.36.096c.594.16.809.68.811 1.112.002.425-.214.983-.83 1.156l-.352.098-.003.36-.004.42c-.003.418-.006.836-.013 1.255-.013.837-.65 1.134-1.19 1.134-.46 0-1.089-.226-1.35-.862-.276-.677-.552-1.35-.83-2.025l-.133-.301-.33.001-1.875.008-1.603.001a809.172 809.172 0 0 1-13.741-.12c-.435-.006-.913-.273-1.163-.649-.122-.183-.24-.47-.103-.795.284-.673.559-1.394.767-1.949l1.77-4.425c1.04-2.266 2.119-3.826 3.397-4.911 1.356-1.157 2.916-1.746 4.773-1.8a8.531 8.531 0 0 1 .778.006c2.685.13 4.7 1.812 6.16 5.14.37.848.752 1.741 1.165 2.73l.978 2.338-.038-2.528a299.592 299.592 0 0 0-.612-15.076l-.026-.406-.411-.042-4.923-.497-4.442-.448a393.6 393.6 0 0 0-1.634-.164l-1.135-.101h-.007l-.007-.001-4.676-.281-1.405-.146-.018-.002h-.018l-.156-.005c-1.475-.046-3-.092-3.44-.137a9.327 9.327 0 0 1-.575-.09c-.22-.038-.468-.081-.711-.111l-.56-.07.01.556c.006.273.023.577.038.845.013.235.025.458.026.6.003.864.005 1.73.005 2.594l.005 2.067.01 3.446c0 .314-.099.572-.296.766-.232.23-.59.361-.982.361-.477 0-1.286-.237-1.288-1.13-.01-3.127-.017-6.255-.024-9.382v-.02l-.001-.19c-.006-.983-.01-1.913.757-2.473.337-.246.76-.36 1.328-.36" id="Fill-1" fill="red"/><path d="M26.286 28.137c-2.08.005-4.161 0-6.243-.012L20.695 30H27l-.714-1.863Zm-4.64-12.132a3.083 3.083 0 0 0-.485-.093c-1.832-.204-3.5.86-4.662 2.169l.52 1.481H9.863l3.598-9.907h.078l1.7 4.837c1.329-1.124 2.98-1.848 5.098-1.91l-3.046-7.96L16.671 3h-6.227l-.424 1.096L0 30h6.111l2.168-6.012h10.327l.28.808c2.042.016 4.085.024 6.13.021l-3.37-8.812Z" id="Fill-3" fill="#FFF"/></g></g></g></svg>